<svg width="22" height="27" viewBox="0 0 22 27" fill="none" xmlns="http://www.w3.org/2000/svg">
<path d="M17.7596 13.9199C17.7596 11.8799 18.8396 9.95987 20.6396 8.87987C19.5596 7.31987 17.7596 6.35987 15.8396 6.23987C13.7996 5.99987 11.8796 7.43987 10.7996 7.43987C9.71961 7.43987 8.15961 6.23987 6.47961 6.23987C4.19961 6.35987 2.15961 7.55987 1.07961 9.47987C-1.20039 13.4399 0.479609 19.4399 2.75961 22.6799C3.83961 24.2399 5.15961 26.0399 6.83961 26.0399C8.51961 25.9199 9.11961 24.9599 11.1596 24.9599C13.1996 24.9599 13.6796 26.0399 15.4796 26.0399C17.2796 26.0399 18.3596 24.4799 19.4396 22.7999C20.2796 21.7199 20.8796 20.3999 21.2396 19.0799C19.0796 18.3599 17.7596 16.1999 17.7596 13.9199Z" fill="#020617"/>
<path d="M14.3991 4.2C15.3591 3 15.8391 1.56 15.7191 0C14.2791 0.12 12.8391 0.84 11.8791 2.04C10.9191 3.12 10.4391 4.56 10.5591 6.12C12.1191 6.12 13.4391 5.4 14.3991 4.2Z" fill="#020617"/>
</svg>
