<svg width="36" height="36" viewBox="0 0 36 36" fill="none" xmlns="http://www.w3.org/2000/svg">
<path d="M17.3262 3.52637C19.2732 3.34429 21.1438 3.961 22.583 5.27441L22.585 5.27637C24.0084 6.56046 24.8193 8.40461 24.8193 10.3193V11.9092L25.2666 11.957C27.2928 12.1742 28.6718 12.7862 29.5654 13.7705V13.7715C30.8505 15.2172 30.8507 17.1764 30.6885 18.6426L29.6387 27.0273L29.6377 27.0361C29.4842 28.4535 29.1273 29.7874 28.1113 30.7783C27.0988 31.7658 25.3399 32.5 22.1846 32.5H13.8145C10.6592 32.5 8.90104 31.7654 7.88867 30.7764C6.87272 29.7838 6.51582 28.4466 6.3623 27.0215L6.36035 27.0127L5.31055 18.6572C5.14789 17.1722 5.13432 15.2179 6.42969 13.7744L6.43066 13.7754C7.32415 12.7886 8.70348 12.1745 10.7324 11.957L11.1797 11.9092V10.5898C11.1797 7.07913 14.0167 3.84615 17.3271 3.52734L17.3262 3.52637ZM12.6143 16.2246C11.5133 16.2248 10.6143 17.1236 10.6143 18.2246C10.6143 19.3256 11.5133 20.2244 12.6143 20.2246H12.6299C13.7309 20.2245 14.6299 19.3257 14.6299 18.2246C14.6299 17.1202 13.7272 16.2246 12.6143 16.2246ZM23.1143 16.2246C22.0133 16.2248 21.1143 17.1236 21.1143 18.2246C21.1143 19.3256 22.0133 20.2244 23.1143 20.2246H23.1299C24.2309 20.2245 25.1299 19.3257 25.1299 18.2246C25.1299 17.1202 24.2272 16.2246 23.1143 16.2246ZM21.8604 6.0791C20.6444 4.9782 19.08 4.469 17.4443 4.61621L17.4424 4.61719C16.0297 4.75173 14.7367 5.53194 13.8037 6.61426C12.8699 7.69763 12.2646 9.11961 12.2646 10.5898V11.8691H23.7344V10.3193C23.7343 8.71051 23.0615 7.16531 21.8604 6.0791Z" fill="#123458" stroke="#123458"/>
</svg>
