<svg width="24" height="24" viewBox="0 0 24 24" fill="none" xmlns="http://www.w3.org/2000/svg">
<path d="M7.75977 2.5H16.2402C17.5828 2.50003 18.3498 2.74835 18.7998 3.20312C19.2512 3.65941 19.4999 4.44049 19.5 5.80957V18.1904C19.4999 19.5597 19.2512 20.3407 18.7988 20.7969C18.3476 21.2518 17.5782 21.4999 16.2305 21.5H7.75977C6.41721 21.5 5.65025 21.2517 5.2002 20.7969C4.7488 20.3406 4.50005 19.5595 4.5 18.1904V5.80957C4.50005 4.44049 4.7488 3.65941 5.2002 3.20312C5.65025 2.74835 6.41721 2.50003 7.75977 2.5ZM12 15.2998C10.7639 15.2998 9.75011 16.3138 9.75 17.5498C9.75 18.7859 10.7639 19.7998 12 19.7998C13.2361 19.7998 14.25 18.7859 14.25 17.5498C14.2499 16.3138 13.2361 15.2998 12 15.2998ZM10 4.25C9.31386 4.25 8.75 4.81386 8.75 5.5C8.75 6.18614 9.31386 6.75 10 6.75H14C14.6861 6.75 15.25 6.18614 15.25 5.5C15.25 4.81386 14.6861 4.25 14 4.25H10Z" fill="white" stroke="white"/>
</svg>
