<svg width="25" height="27" viewBox="0 0 25 27" fill="none" xmlns="http://www.w3.org/2000/svg">
<path d="M0.48 0.398438C0.12 0.758437 0 1.23844 0 1.83844V24.6384C0 25.2384 0.12 25.7184 0.48 26.0784L0.6 26.1984L13.56 13.3584V12.9984L0.48 0.398438Z" fill="url(#paint0_linear_803_340444)"/>
<path d="M17.7595 17.6797L13.4395 13.3597V12.9997L17.7595 8.67969H17.8795L23.0395 11.5597C24.4795 12.3997 24.4795 13.7197 23.0395 14.5597L17.7595 17.6797Z" fill="url(#paint1_linear_803_340444)"/>
<path d="M17.8805 17.6794L13.4405 13.3594L0.480469 26.1994C0.960469 26.6794 1.80047 26.7994 2.64047 26.3194L17.8805 17.6794Z" fill="url(#paint2_linear_803_340444)"/>
<path d="M17.8805 8.91899L2.64047 0.398987C1.80047 -0.0810133 0.960469 -0.0810128 0.480469 0.518987L13.5605 13.359L17.8805 8.91899Z" fill="url(#paint3_linear_803_340444)"/>
<defs>
<linearGradient id="paint0_linear_803_340444" x1="12.3203" y1="24.9385" x2="-5.00471" y2="7.41014" gradientUnits="userSpaceOnUse">
<stop stop-color="#00A0FF"/>
<stop offset="0.007" stop-color="#00A1FF"/>
<stop offset="0.26" stop-color="#00BEFF"/>
<stop offset="0.512" stop-color="#00D2FF"/>
<stop offset="0.76" stop-color="#00DFFF"/>
<stop offset="1" stop-color="#00E3FF"/>
</linearGradient>
<linearGradient id="paint1_linear_803_340444" x1="24.891" y1="13.2832" x2="-0.383899" y2="13.2832" gradientUnits="userSpaceOnUse">
<stop stop-color="#FFE000"/>
<stop offset="0.409" stop-color="#FFBD00"/>
<stop offset="0.775" stop-color="#FFA500"/>
<stop offset="1" stop-color="#FF9C00"/>
</linearGradient>
<linearGradient id="paint2_linear_803_340444" x1="6.76703" y1="19.5279" x2="-16.7264" y2="-4.24303" gradientUnits="userSpaceOnUse">
<stop stop-color="#FF3A44"/>
<stop offset="1" stop-color="#C31162"/>
</linearGradient>
<linearGradient id="paint3_linear_803_340444" x1="-11.5396" y1="25.134" x2="-1.05" y2="14.5205" gradientUnits="userSpaceOnUse">
<stop stop-color="#32A071"/>
<stop offset="0.069" stop-color="#2DA771"/>
<stop offset="0.476" stop-color="#15CF74"/>
<stop offset="0.801" stop-color="#06E775"/>
<stop offset="1" stop-color="#00F076"/>
</linearGradient>
</defs>
</svg>
