<svg width="32" height="32" viewBox="0 0 32 32" fill="none" xmlns="http://www.w3.org/2000/svg">
<rect width="32" height="32" rx="16" fill="#12477A"/>
<path d="M16.0026 8.13083C18.5678 8.13083 18.8689 8.14226 19.8828 8.188C20.8204 8.22993 21.3274 8.3862 21.6666 8.51961C22.1164 8.69494 22.4365 8.90076 22.7719 9.23618C23.1074 9.57159 23.317 9.89176 23.4885 10.3415C23.6181 10.6808 23.7782 11.1877 23.8201 12.1253C23.8659 13.1392 23.8773 13.4403 23.8773 16.0055C23.8773 18.5706 23.8659 18.8717 23.8201 19.8856C23.7782 20.8233 23.6219 21.3302 23.4885 21.6694C23.3132 22.1192 23.1074 22.4394 22.7719 22.7748C22.4365 23.1102 22.1164 23.3198 21.6666 23.4913C21.3274 23.6209 20.8204 23.781 19.8828 23.8229C18.8689 23.8687 18.5678 23.8801 16.0026 23.8801C13.4375 23.8801 13.1364 23.8687 12.1225 23.8229C11.1849 23.781 10.6779 23.6247 10.3387 23.4913C9.88893 23.316 9.56876 23.1102 9.23334 22.7748C8.89793 22.4394 8.68829 22.1192 8.51677 21.6694C8.38718 21.3302 8.2271 20.8233 8.18517 19.8856C8.13943 18.8717 8.128 18.5706 8.128 16.0055C8.128 13.4403 8.13943 13.1392 8.18517 12.1253C8.2271 11.1877 8.38337 10.6808 8.51677 10.3415C8.6921 9.89176 8.89793 9.57159 9.23334 9.23618C9.56876 8.90076 9.88893 8.69113 10.3387 8.51961C10.6779 8.39001 11.1849 8.22993 12.1225 8.188C13.1364 8.13845 13.4413 8.13083 16.0026 8.13083ZM16.0026 6.40039C13.3955 6.40039 13.0678 6.41183 12.0425 6.45756C11.021 6.5033 10.3234 6.6672 9.7136 6.90351C9.08088 7.14745 8.54727 7.47906 8.01365 8.01267C7.48003 8.54629 7.15224 9.08371 6.90449 9.71262C6.66818 10.3225 6.50428 11.02 6.45854 12.0453C6.4128 13.0668 6.40137 13.3946 6.40137 16.0017C6.40137 18.6088 6.4128 18.9365 6.45854 19.9619C6.50428 20.9833 6.66818 21.6809 6.90449 22.2945C7.14843 22.9272 7.48003 23.4608 8.01365 23.9945C8.54727 24.5281 9.08469 24.8559 9.7136 25.1036C10.3234 25.3399 11.021 25.5038 12.0463 25.5496C13.0716 25.5953 13.3955 25.6067 16.0065 25.6067C18.6174 25.6067 18.9413 25.5953 19.9666 25.5496C20.9881 25.5038 21.6857 25.3399 22.2993 25.1036C22.932 24.8597 23.4656 24.5281 23.9993 23.9945C24.5329 23.4608 24.8607 22.9234 25.1084 22.2945C25.3447 21.6847 25.5086 20.9872 25.5544 19.9619C25.6001 18.9365 25.6115 18.6126 25.6115 16.0017C25.6115 13.3908 25.6001 13.0668 25.5544 12.0415C25.5086 11.02 25.3447 10.3225 25.1084 9.70881C24.8645 9.07609 24.5329 8.54248 23.9993 8.00886C23.4656 7.47524 22.9282 7.14745 22.2993 6.8997C21.6895 6.66339 20.992 6.49949 19.9666 6.45375C18.9375 6.41183 18.6097 6.40039 16.0026 6.40039Z" fill="white"/>
<path d="M16.0026 8.13083C18.5678 8.13083 18.8689 8.14226 19.8828 8.188C20.8204 8.22993 21.3274 8.3862 21.6666 8.51961C22.1164 8.69494 22.4365 8.90076 22.7719 9.23618C23.1074 9.57159 23.317 9.89176 23.4885 10.3415C23.6181 10.6808 23.7782 11.1877 23.8201 12.1253C23.8659 13.1392 23.8773 13.4403 23.8773 16.0055C23.8773 18.5706 23.8659 18.8717 23.8201 19.8856C23.7782 20.8233 23.6219 21.3302 23.4885 21.6694C23.3132 22.1192 23.1074 22.4394 22.7719 22.7748C22.4365 23.1102 22.1164 23.3198 21.6666 23.4913C21.3274 23.6209 20.8204 23.781 19.8828 23.8229C18.8689 23.8687 18.5678 23.8801 16.0026 23.8801C13.4375 23.8801 13.1364 23.8687 12.1225 23.8229C11.1849 23.781 10.6779 23.6247 10.3387 23.4913C9.88893 23.316 9.56876 23.1102 9.23334 22.7748C8.89793 22.4394 8.68829 22.1192 8.51677 21.6694C8.38718 21.3302 8.2271 20.8233 8.18517 19.8856C8.13943 18.8717 8.128 18.5706 8.128 16.0055C8.128 13.4403 8.13943 13.1392 8.18517 12.1253C8.2271 11.1877 8.38337 10.6808 8.51677 10.3415C8.6921 9.89176 8.89793 9.57159 9.23334 9.23618C9.56876 8.90076 9.88893 8.69113 10.3387 8.51961C10.6779 8.39001 11.1849 8.22993 12.1225 8.188C13.1364 8.13845 13.4413 8.13083 16.0026 8.13083Z" fill="white"/>
<path d="M16.0024 11.0723C13.281 11.0723 11.0703 13.2791 11.0703 16.0044C11.0703 18.7296 13.2772 20.9365 16.0024 20.9365C18.7277 20.9365 20.9346 18.7296 20.9346 16.0044C20.9346 13.2791 18.7277 11.0723 16.0024 11.0723ZM16.0024 19.2023C14.2339 19.2023 12.8008 17.7691 12.8008 16.0006C12.8008 14.232 14.2339 12.7989 16.0024 12.7989C17.771 12.7989 19.2041 14.232 19.2041 16.0006C19.2041 17.7691 17.771 19.2023 16.0024 19.2023Z" fill="#12477A"/>
<path d="M21.1296 12.0248C21.7653 12.0248 22.2807 11.5095 22.2807 10.8737C22.2807 10.238 21.7653 9.72266 21.1296 9.72266C20.4939 9.72266 19.9785 10.238 19.9785 10.8737C19.9785 11.5095 20.4939 12.0248 21.1296 12.0248Z" fill="#12477A"/>
</svg>
