<svg width="32" height="32" viewBox="0 0 32 32" fill="none" xmlns="http://www.w3.org/2000/svg">
<rect width="32" height="32" rx="16" fill="#12477A"/>
<path d="M23.501 7.19922H8.49942C8.15484 7.19922 7.82438 7.3361 7.58073 7.57975C7.33708 7.8234 7.2002 8.15387 7.2002 8.49844V23.5C7.2002 23.8446 7.33708 24.175 7.58073 24.4187C7.82438 24.6623 8.15484 24.7992 8.49942 24.7992H23.501C23.8455 24.7992 24.176 24.6623 24.4197 24.4187C24.6633 24.175 24.8002 23.8446 24.8002 23.5V8.49844C24.8002 8.15387 24.6633 7.8234 24.4197 7.57975C24.176 7.3361 23.8455 7.19922 23.501 7.19922ZM12.446 22.1922H9.79986V13.787H12.446V22.1922ZM11.1211 12.6222C10.8209 12.6205 10.528 12.53 10.2793 12.3619C10.0305 12.1939 9.83714 11.956 9.72351 11.6782C9.60987 11.4004 9.58107 11.0951 9.64075 10.801C9.70043 10.5068 9.84592 10.2369 10.0588 10.0253C10.2718 9.81376 10.5426 9.67001 10.8371 9.61222C11.1317 9.55443 11.4367 9.58519 11.7138 9.70061C11.9909 9.81603 12.2276 10.0109 12.394 10.2607C12.5604 10.5106 12.6491 10.8041 12.6489 11.1042C12.6517 11.3052 12.614 11.5046 12.5381 11.6907C12.4622 11.8768 12.3496 12.0457 12.2071 12.1874C12.0645 12.3291 11.8949 12.4406 11.7083 12.5153C11.5217 12.59 11.322 12.6263 11.1211 12.6222ZM22.1993 22.1996H19.5544V17.6077C19.5544 16.2534 18.9788 15.8354 18.2356 15.8354C17.451 15.8354 16.681 16.427 16.681 17.6419V22.1996H14.0349V13.7931H16.5795V14.9579H16.6138C16.8692 14.4409 17.7639 13.5572 19.1291 13.5572C20.6055 13.5572 22.2005 14.4336 22.2005 17.0002L22.1993 22.1996Z" fill="white"/>
</svg>
