<svg width="24" height="24" viewBox="0 0 24 24" fill="none" xmlns="http://www.w3.org/2000/svg">
<path d="M15.2305 2.5H19.2695C20.0209 2.5 20.4196 2.64547 20.6387 2.85156C20.8501 3.05042 20.9999 3.40644 21 4.09961V10.9004C20.9999 11.5936 20.8501 11.9496 20.6387 12.1484C20.4196 12.3545 20.0209 12.5 19.2695 12.5H15.2305C14.4791 12.5 14.0804 12.3545 13.8613 12.1484C13.6499 11.9496 13.5001 11.5936 13.5 10.9004V4.09961C13.5001 3.40644 13.6499 3.05042 13.8613 2.85156C14.0804 2.64547 14.4791 2.5 15.2305 2.5Z" fill="#123458" stroke="#123458"/>
<path d="M4.73047 11.5H8.76953C9.52094 11.5 9.91957 11.6455 10.1387 11.8516C10.3501 12.0504 10.4999 12.4064 10.5 13.0996V19.9004C10.4999 20.5936 10.3501 20.9496 10.1387 21.1484C9.91957 21.3545 9.52094 21.5 8.76953 21.5H4.73047C3.97906 21.5 3.58043 21.3545 3.36133 21.1484C3.14995 20.9496 3.00006 20.5936 3 19.9004V13.0996C3.00006 12.4064 3.14995 12.0504 3.36133 11.8516C3.58043 11.6455 3.97906 11.5 4.73047 11.5Z" fill="#123458" stroke="#123458"/>
<path d="M21.5 19.9V17.1C21.5 15.6 20.86 15 19.27 15H15.23C13.64 15 13 15.6 13 17.1V19.9C13 21.4 13.64 22 15.23 22H19.27C20.86 22 21.5 21.4 21.5 19.9Z" fill="#123458"/>
<path d="M11 6.9V4.1C11 2.6 10.36 2 8.77 2H4.73C3.14 2 2.5 2.6 2.5 4.1V6.9C2.5 8.4 3.14 9 4.73 9H8.77C10.36 9 11 8.4 11 6.9Z" fill="#123458"/>
</svg>
